<svg version="1.1" width="1200" height="100" xmlns="http://www.w3.org/2000/svg">
  <g fill="#7971ea" transform="scale(0.4)">
    <path d="M 224 64 l -96 32 l -96 -32 l 96 -32 Z" opacity=".2" />
    <path
      d="M 226.5 56.4 l -96 -32 a 8 8 0 0 0 -5.1 0 l -96 32 a 8 8 0 0 0 -5.4 6.8 A 5 5 0 0 0 24 64 v 80 a 8 8 0 0 0 16 0 V 75.1 l 33.6 11.2 a 64 64 0 0 0 20.6 88 c -18 7.1 -33.6 19.8 -44.9 37.3 a 8 8 0 1 0 13.4 8.7 C 77.8 197.3 101.6 184 128 184 s 50.2 13.3 65.3 36.4 a 8 8 0 0 0 13.4 -8.7 c -11.4 -17.5 -27 -30.2 -44.9 -37.3 a 64 64 0 0 0 20.6 -88 l 44.1 -14.7 a 8 8 0 0 0 0 -15.2 Z M 176 120 a 48 48 0 1 1 -86.7 -28.4 l 36.1 12 a 8 8 0 0 0 5.1 0 l 36.1 -12 A 47.9 47.9 0 0 1 176 120 m -48 -32.4 L 57.3 64 L 128 40.4 L 198.7 64 Z" />
  </g>
  <text x="110" y="50" font-size="48">
    Web Development
  </text> 
  <text x="114" y="90" font-size="18pt">
    prof. Marcelo Amorim
  </text>
</svg>
